<?xml version="1.0" encoding="utf-8"?><svg xmlns="http://www.w3.org/2000/svg" xmlns:xlink="http://www.w3.org/1999/xlink"><symbol fill="none" viewBox="0 0 315 59" id="logo" xmlns="http://www.w3.org/2000/svg"><g clip-path="url(#aa)"><path d="m46.446 23.54.98-.904a.58.58 0 0 0 .03-.825l-6.233-6.652a.594.594 0 0 0-.833-.03l-8.114 7.458-6.294 5.785c-.38.346-.154.976.36 1.013l11.452.77c.514.036.74.66.36 1.012l-4.72 4.336-.98.904a.58.58 0 0 0-.03.824l6.202 6.622c.22.236.594.248.833.03l8.114-7.458 6.295-5.779c.38-.346.153-.976-.362-1.013l-11.408-.745a.584.584 0 0 1-.36-1.013l4.714-4.336h-.006ZM39.098 9.58H22.846a.823.823 0 0 0-.545.207l-1.806 1.582c-.57.498-.214 1.425.545 1.425h16.252a.823.823 0 0 0 .544-.206l1.807-1.582c.57-.498.214-1.425-.545-1.425Zm5.388-4.79H28.174a.823.823 0 0 0-.545.207l-1.807 1.582c-.57.498-.214 1.425.545 1.425H42.68a.823.823 0 0 0 .545-.206l1.806-1.583c.57-.497.215-1.424-.544-1.424ZM49.9 0H33.624a.814.814 0 0 0-.552.212L31.23 1.855c-.563.498-.202 1.42.552 1.42h16.276a.815.815 0 0 0 .55-.213l1.844-1.643C51.014.922 50.653 0 49.9 0ZM37.28 46.206H21.002c-.753 0-1.114.921-.55 1.418l1.842 1.644a.845.845 0 0 0 .551.212h16.276c.754 0 1.115-.922.551-1.419l-1.843-1.643a.845.845 0 0 0-.55-.212Zm5.388 4.79H26.33c-.754 0-1.115.922-.552 1.419l1.844 1.643a.845.845 0 0 0 .55.212H44.51c.753 0 1.114-.921.551-1.418l-1.843-1.644a.845.845 0 0 0-.551-.212Zm-11.402 6.215 1.806 1.583a.823.823 0 0 0 .545.206H49.87c.76 0 1.114-.928.545-1.425l-1.806-1.583a.823.823 0 0 0-.545-.206H31.81c-.76 0-1.114.928-.545 1.425Z" fill="#0976AD"/><path d="m19.307 28.918 14.91-13.189c.564-.497.209-1.425-.55-1.425H17.518a.839.839 0 0 0-.551.206L0 29.53l16.974 14.953a.823.823 0 0 0 .545.207h16.135c.76 0 1.115-.928.545-1.425L19.301 30.136a.812.812 0 0 1 0-1.22h.006Zm50.603 1.104c-1.331 0-2.531-.276-3.6-.828a6.406 6.406 0 0 1-2.52-2.34c-.6-1.008-.9-2.148-.9-3.42 0-1.272.3-2.406.9-3.402a6.238 6.238 0 0 1 2.52-2.34c1.069-.564 2.269-.846 3.6-.846 1.225 0 2.317.216 3.277.648a6.08 6.08 0 0 1 2.376 1.872L72.88 21.76c-.78-.984-1.698-1.476-2.754-1.476-.888 0-1.602.288-2.142.864-.54.564-.81 1.326-.81 2.286s.27 1.728.81 2.304c.54.564 1.254.846 2.142.846 1.056 0 1.974-.492 2.754-1.476l2.682 2.394a6.08 6.08 0 0 1-2.376 1.872c-.96.432-2.052.648-3.276.648Zm17.412-3.492v3.204H76.846v-12.6h10.242v3.204h-6.066v1.476h5.328v3.06h-5.328v1.656h6.3Zm7.79-9.396c1.163 0 2.177.192 3.041.576.864.384 1.53.936 1.998 1.656.468.72.702 1.56.702 2.52s-.234 1.8-.702 2.52c-.468.72-1.134 1.272-1.998 1.656-.864.384-1.878.576-3.042.576h-1.818v3.096h-4.248v-12.6h6.066Zm-.27 6.228c.575 0 1.007-.126 1.295-.378.288-.264.432-.63.432-1.098 0-.468-.144-.828-.432-1.08-.288-.264-.72-.396-1.296-.396h-1.548v2.952h1.548Zm16.983-.234c.708.252 1.248.63 1.62 1.134.372.492.558 1.098.558 1.818 0 1.128-.45 2.022-1.35 2.682-.888.648-2.148.972-3.78.972h-6.732v-12.6h6.39c1.56 0 2.766.288 3.618.864.864.576 1.296 1.386 1.296 2.43 0 .6-.144 1.128-.432 1.584-.276.456-.672.828-1.188 1.116Zm-5.508-1.152h1.8c.696 0 1.044-.306 1.044-.918 0-.636-.348-.954-1.044-.954h-1.8v1.872Zm2.358 4.788c.696 0 1.044-.336 1.044-1.008 0-.648-.348-.972-1.044-.972h-2.358v1.98h2.358Zm6.843-9.63h4.176v6.552l4.338-6.552h3.996v12.6h-4.176V23.2l-4.32 6.534h-4.014v-12.6Zm21.084 12.888c-1.332 0-2.532-.276-3.6-.828a6.406 6.406 0 0 1-2.52-2.34c-.6-1.008-.9-2.148-.9-3.42 0-1.272.3-2.406.9-3.402a6.238 6.238 0 0 1 2.52-2.34c1.068-.564 2.268-.846 3.6-.846 1.224 0 2.316.216 3.276.648a6.08 6.08 0 0 1 2.376 1.872l-2.682 2.394c-.78-.984-1.698-1.476-2.754-1.476-.888 0-1.602.288-2.142.864-.54.564-.81 1.326-.81 2.286s.27 1.728.81 2.304c.54.564 1.254.846 2.142.846 1.056 0 1.974-.492 2.754-1.476l2.682 2.394a6.08 6.08 0 0 1-2.376 1.872c-.96.432-2.052.648-3.276.648Zm6.936-12.888h4.176v6.552l4.338-6.552h3.996v12.6h-4.176V23.2l-4.32 6.534h-4.014v-12.6Zm27.168 0v12.6h-4.248V25.09h-3.924v4.644h-4.248v-12.6h4.248v4.464h3.924v-4.464h4.248Zm8.576 12.888c-1.332 0-2.532-.276-3.6-.828a6.406 6.406 0 0 1-2.52-2.34c-.6-1.008-.9-2.148-.9-3.42 0-1.272.3-2.406.9-3.402a6.238 6.238 0 0 1 2.52-2.34c1.068-.564 2.268-.846 3.6-.846 1.224 0 2.316.216 3.276.648a6.08 6.08 0 0 1 2.376 1.872l-2.682 2.394c-.78-.984-1.698-1.476-2.754-1.476-.888 0-1.602.288-2.142.864-.54.564-.81 1.326-.81 2.286s.27 1.728.81 2.304c.54.564 1.254.846 2.142.846 1.056 0 1.974-.492 2.754-1.476l2.682 2.394a6.08 6.08 0 0 1-2.376 1.872c-.96.432-2.052.648-3.276.648Zm17.575-9.594h-3.69v9.306h-4.176v-9.306h-3.69v-3.294h11.556v3.294Zm7.467-3.294c1.164 0 2.178.192 3.042.576.864.384 1.53.936 1.998 1.656.468.72.702 1.56.702 2.52s-.234 1.8-.702 2.52c-.468.72-1.134 1.272-1.998 1.656-.864.384-1.878.576-3.042.576h-1.818v3.096h-4.248v-12.6h6.066Zm-.27 6.228c.576 0 1.008-.126 1.296-.378.288-.264.432-.63.432-1.098 0-.468-.144-.828-.432-1.08-.288-.264-.72-.396-1.296-.396h-1.548v2.952h1.548Zm19.619-6.228-5.058 9.486c-.6 1.128-1.338 1.986-2.214 2.574a4.977 4.977 0 0 1-2.862.882c-.804 0-1.62-.168-2.448-.504l.99-3.06c.528.144.96.216 1.296.216.312 0 .576-.054.792-.162.228-.108.444-.288.648-.54l-4.824-8.892h4.482l2.502 5.31 2.592-5.31h4.104Zm12.132 12.6-.036-5.742-2.736 4.608h-1.872l-2.736-4.41v5.544h-3.87v-12.6h3.492l4.104 6.714 3.996-6.714h3.492l.036 12.6h-3.87Zm16.558-3.204v3.204h-10.476v-12.6h10.242v3.204h-6.066v1.476h5.328v3.06h-5.328v1.656h6.3Zm14.143-9.396v12.6h-4.248V25.09h-3.924v4.644h-4.248v-12.6h4.248v4.464h3.924v-4.464h4.248Zm12.969 3.294h-3.69v9.306h-4.176v-9.306h-3.69v-3.294h11.556v3.294Z" fill="#0976AD"/><path d="m73.58 47-.01-5.1-2.53 4.25h-.46l-2.53-4.22V47h-.96v-7h.82l2.92 4.92L73.71 40h.82l.01 7h-.96Zm8.219-.87V47h-5.08v-7h4.94v.87h-3.94v2.15h3.51v.85h-3.51v2.26h4.08Zm8.24 0v2.4h-.93V47h-5.76l-.01 1.53h-.93l.01-2.4h.34c.44-.027.75-.373.93-1.04.18-.673.29-1.62.33-2.84l.07-2.25h4.92v6.13h1.03Zm-5.14-3.79c-.033.987-.113 1.803-.24 2.45-.12.647-.316 1.093-.59 1.34h3.95v-5.26h-3.07l-.05 1.47ZM91.406 40h.99v5.4l4.14-5.4h.92v7h-.98v-5.39L92.326 47h-.92v-7Zm15.193 6.13v2.46h-.93V47h-6.03v-7h.99v6.13h3.9V40h.99v6.13h1.08ZM107.93 40h.99v5.4l4.14-5.4h.92v7H113v-5.39L108.85 47h-.92v-7Zm14.252 0v7h-1v-3.12h-4.02V47h-1v-7h1v3.01h4.02V40h1Zm5.313 7.08c-.7 0-1.333-.153-1.9-.46-.56-.313-1-.74-1.32-1.28a3.574 3.574 0 0 1-.48-1.84c0-.68.16-1.29.48-1.83a3.37 3.37 0 0 1 1.33-1.28c.567-.313 1.2-.47 1.9-.47a3.9 3.9 0 0 1 1.5.28c.454.18.84.45 1.16.81l-.65.63c-.526-.553-1.183-.83-1.97-.83-.52 0-.99.117-1.41.35-.42.233-.75.557-.99.97-.233.407-.35.863-.35 1.37 0 .507.117.967.35 1.38.24.407.57.727.99.96.42.233.89.35 1.41.35.78 0 1.437-.28 1.97-.84l.65.63c-.32.36-.71.633-1.17.82a3.9 3.9 0 0 1-1.5.28Zm6.488-3.16h-1.46V47h-.98v-7h.98v3.04h1.48l2.2-3.04h1.07l-2.5 3.39 2.62 3.61h-1.14l-2.27-3.08Zm7.566 3.16c-.707 0-1.344-.153-1.91-.46a3.502 3.502 0 0 1-1.34-1.29 3.555 3.555 0 0 1-.48-1.83c0-.673.16-1.283.48-1.83a3.43 3.43 0 0 1 1.34-1.28c.566-.313 1.203-.47 1.91-.47.7 0 1.333.157 1.9.47a3.37 3.37 0 0 1 1.33 1.28c.32.54.48 1.15.48 1.83 0 .68-.16 1.293-.48 1.84-.32.54-.764.967-1.33 1.28-.567.307-1.2.46-1.9.46Zm0-.89c.513 0 .973-.117 1.38-.35.413-.233.736-.553.97-.96.24-.413.36-.873.36-1.38 0-.507-.12-.963-.36-1.37a2.519 2.519 0 0 0-.97-.97 2.725 2.725 0 0 0-1.38-.35c-.514 0-.98.117-1.4.35-.414.233-.74.557-.98.97-.234.407-.35.863-.35 1.37 0 .507.116.967.35 1.38a2.6 2.6 0 0 0 .98.96c.42.233.886.35 1.4.35Zm10.406-.06V47h-5.08v-7h4.94v.87h-3.94v2.15h3.51v.85h-3.51v2.26h4.08Zm7.406.95c-.707 0-1.343-.153-1.91-.46a3.51 3.51 0 0 1-1.34-1.29 3.555 3.555 0 0 1-.48-1.83c0-.673.16-1.283.48-1.83a3.437 3.437 0 0 1 1.34-1.28c.567-.313 1.203-.47 1.91-.47.7 0 1.333.157 1.9.47.567.307 1.01.733 1.33 1.28.32.54.48 1.15.48 1.83 0 .68-.16 1.293-.48 1.84-.32.54-.763.967-1.33 1.28-.567.307-1.2.46-1.9.46Zm0-.89c.513 0 .973-.117 1.38-.35.413-.233.737-.553.97-.96.24-.413.36-.873.36-1.38 0-.507-.12-.963-.36-1.37a2.512 2.512 0 0 0-.97-.97 2.725 2.725 0 0 0-1.38-.35c-.513 0-.98.117-1.4.35-.413.233-.74.557-.98.97-.233.407-.35.863-.35 1.37 0 .507.117.967.35 1.38.24.407.567.727.98.96.42.233.887.35 1.4.35Zm5.327-6.19h5.28v.85h-4.29v2h2.18c.833 0 1.466.173 1.9.52.433.347.65.847.65 1.5 0 .687-.237 1.213-.71 1.58-.467.367-1.137.55-2.01.55h-3v-7Zm2.96 6.21c.573 0 1.01-.11 1.31-.33.3-.22.45-.543.45-.97 0-.847-.587-1.27-1.76-1.27h-1.97v2.57h1.97Zm7.504.87c-.707 0-1.343-.153-1.91-.46a3.51 3.51 0 0 1-1.34-1.29 3.555 3.555 0 0 1-.48-1.83c0-.673.16-1.283.48-1.83a3.437 3.437 0 0 1 1.34-1.28c.567-.313 1.203-.47 1.91-.47.7 0 1.333.157 1.9.47.567.307 1.01.733 1.33 1.28.32.54.48 1.15.48 1.83 0 .68-.16 1.293-.48 1.84-.32.54-.763.967-1.33 1.28-.567.307-1.2.46-1.9.46Zm0-.89c.513 0 .973-.117 1.38-.35.413-.233.737-.553.97-.96.24-.413.36-.873.36-1.38 0-.507-.12-.963-.36-1.37a2.512 2.512 0 0 0-.97-.97 2.725 2.725 0 0 0-1.38-.35c-.513 0-.98.117-1.4.35-.413.233-.74.557-.98.97-.233.407-.35.863-.35 1.37 0 .507.117.967.35 1.38.24.407.567.727.98.96.42.233.887.35 1.4.35Zm8.057-6.19c.906 0 1.62.217 2.14.65.52.433.78 1.03.78 1.79s-.26 1.357-.78 1.79c-.52.433-1.234.65-2.14.65h-1.73V47h-1v-7h2.73Zm-.03 4.01c.633 0 1.116-.133 1.45-.4.333-.273.5-.663.5-1.17 0-.507-.167-.893-.5-1.16-.334-.273-.817-.41-1.45-.41h-1.7v3.14h1.7Zm9.914-4.01-3.11 5.77c-.246.46-.536.803-.87 1.03-.333.227-.696.34-1.09.34-.306 0-.62-.07-.94-.21l.26-.8c.247.087.467.13.66.13.44 0 .804-.233 1.09-.7l.16-.25-2.82-5.31h1.07l2.27 4.44 2.33-4.44h.99Zm7.62 6.13v2.4h-.93V47h-5.76l-.01 1.53h-.93l.01-2.4h.34c.44-.027.75-.373.93-1.04.18-.673.29-1.62.33-2.84l.07-2.25h4.92v6.13h1.03Zm-5.14-3.79c-.033.987-.113 1.803-.24 2.45-.12.647-.317 1.093-.59 1.34h3.95v-5.26h-3.07l-.05 1.47Zm9.657 4.74c-.706 0-1.343-.153-1.91-.46a3.516 3.516 0 0 1-1.34-1.29 3.555 3.555 0 0 1-.48-1.83c0-.673.16-1.283.48-1.83a3.444 3.444 0 0 1 1.34-1.28 3.887 3.887 0 0 1 1.91-.47c.7 0 1.334.157 1.9.47.567.307 1.01.733 1.33 1.28.32.54.48 1.15.48 1.83 0 .68-.16 1.293-.48 1.84-.32.54-.763.967-1.33 1.28-.566.307-1.2.46-1.9.46Zm0-.89a2.72 2.72 0 0 0 1.38-.35 2.52 2.52 0 0 0 .97-.96c.24-.413.36-.873.36-1.38 0-.507-.12-.963-.36-1.37a2.505 2.505 0 0 0-.97-.97 2.72 2.72 0 0 0-1.38-.35c-.513 0-.98.117-1.4.35-.413.233-.74.557-.98.97-.233.407-.35.863-.35 1.37 0 .507.117.967.35 1.38.24.407.567.727.98.96.42.233.887.35 1.4.35Zm9.687-2.82c.473.113.83.317 1.07.61.246.287.37.657.37 1.11 0 .607-.224 1.077-.67 1.41-.44.333-1.084.5-1.93.5h-3.2v-7h3.01c.766 0 1.363.157 1.79.47.433.307.65.75.65 1.33 0 .38-.097.703-.29.97a1.685 1.685 0 0 1-.8.6Zm-3.37-.29h1.95c.486 0 .856-.097 1.11-.29.26-.193.39-.477.39-.85s-.13-.657-.39-.85c-.26-.2-.63-.3-1.11-.3h-1.95v2.29Zm2.19 3.13c1.073 0 1.61-.4 1.61-1.2 0-.4-.137-.693-.41-.88-.267-.193-.667-.29-1.2-.29h-2.19v2.37h2.19Zm8.841-.96h-3.72l-.77 1.75h-1.03l3.17-7h.99l3.18 7h-1.05l-.77-1.75Zm-.35-.8-1.51-3.43-1.51 3.43h3.02Zm9.398-4.45v7h-1v-3.12h-4.02V47h-1v-7h1v3.01h4.02V40h1Zm2.183 0h.99v5.4l4.14-5.4h.92v7h-.98v-5.39l-4.15 5.39h-.92v-7Zm13.312 6.13V47h-5.08v-7h4.94v.87h-3.94v2.15h3.51v.85h-3.51v2.26h4.08Z" fill="#000"/></g><defs><clipPath id="aa"><path fill="#fff" d="M0 0h315v59H0z"/></clipPath></defs></symbol></svg>