<svg width="315" height="59" viewBox="0 0 315 59" fill="none" xmlns="http://www.w3.org/2000/svg">
<g clip-path="url(#clip0_1_1369)">
<path d="M46.446 23.5393L47.4257 22.6358C47.6646 22.4175 47.6768 22.0476 47.4564 21.8111L41.2227 15.1592C41.0023 14.9227 40.6288 14.9106 40.39 15.1289L32.2764 22.5873L25.9816 28.3721C25.6019 28.7177 25.8285 29.3483 26.3429 29.3847L37.7936 30.1548C38.308 30.1912 38.5346 30.8157 38.1549 31.1674L33.4338 35.503L32.454 36.4065C32.2152 36.6248 32.203 36.9947 32.4234 37.2312L38.6264 43.8527C38.8469 44.0892 39.2204 44.1014 39.4592 43.8831L47.5727 36.4247L53.8676 30.646C54.2472 30.3003 54.0206 29.6697 53.5063 29.6333L42.0984 28.8875C41.584 28.8511 41.3575 28.2265 41.7371 27.8748L46.4521 23.5393H46.446Z" fill="#0976AD"/>
<path d="M39.0979 9.58057H22.8464C22.6443 9.58057 22.4545 9.65333 22.3014 9.78673L20.495 11.3694C19.9255 11.8666 20.2807 12.7943 21.04 12.7943H37.2915C37.4936 12.7943 37.6834 12.7216 37.8365 12.5882L39.6429 11.0055C40.2124 10.5083 39.8572 9.58057 39.0979 9.58057Z" fill="#0976AD"/>
<path d="M44.4865 4.79053H28.1738C27.9717 4.79053 27.7819 4.86329 27.6288 4.99669L25.8224 6.57933C25.2529 7.07655 25.6081 8.0043 26.3674 8.0043H42.6801C42.8822 8.0043 43.072 7.93153 43.2251 7.79813L45.0315 6.2155C45.601 5.71828 45.2458 4.79053 44.4865 4.79053Z" fill="#0976AD"/>
<path d="M49.8996 0H33.6236C33.4215 0 33.2256 0.0727646 33.0725 0.21223L31.2293 1.8555C30.666 2.35272 31.0273 3.27441 31.7805 3.27441H48.0565C48.2585 3.27441 48.4545 3.20164 48.6076 3.06218L50.4507 1.41891C51.0141 0.921685 50.6528 0 49.8996 0V0Z" fill="#0976AD"/>
<path d="M37.2793 46.2056H21.0033C20.2501 46.2056 19.8888 47.1273 20.4522 47.6245L22.2953 49.2677C22.4484 49.4011 22.6443 49.48 22.8464 49.48H39.1224C39.8756 49.48 40.2369 48.5583 39.6735 48.0611L37.8304 46.4178C37.6773 46.2844 37.4813 46.2056 37.2793 46.2056Z" fill="#0976AD"/>
<path d="M42.6679 50.9961H26.3306C25.5774 50.9961 25.2162 51.9178 25.7795 52.415L27.6227 54.0583C27.7757 54.1917 27.9717 54.2705 28.1738 54.2705H44.511C45.2642 54.2705 45.6255 53.3488 45.0621 52.8516L43.219 51.2083C43.0659 51.0749 42.8699 50.9961 42.6679 50.9961Z" fill="#0976AD"/>
<path d="M31.2661 57.2111L33.0725 58.7937C33.2256 58.9271 33.4154 58.9999 33.6175 58.9999H49.869C50.6283 58.9999 50.9834 58.0722 50.414 57.5749L48.6076 55.9923C48.4545 55.8589 48.2646 55.7861 48.0626 55.7861H31.8111C31.0518 55.7861 30.6966 56.7139 31.2661 57.2111Z" fill="#0976AD"/>
<path d="M19.3071 28.9178L34.2176 15.7292C34.7809 15.2319 34.4258 14.3042 33.6665 14.3042H17.5191C17.317 14.3042 17.121 14.377 16.9679 14.5104L0 29.5302L16.9741 44.4833C17.1272 44.6167 17.317 44.6895 17.5191 44.6895H33.6542C34.4135 44.6895 34.7687 43.7617 34.1992 43.2645L19.301 30.1366C18.9336 29.8152 18.9336 29.2452 19.301 28.9178H19.3071Z" fill="#0976AD"/>
<path d="M69.9107 30.0219C68.5787 30.0219 67.3787 29.7459 66.3107 29.1939C65.2427 28.6299 64.4027 27.8499 63.7907 26.8539C63.1907 25.8459 62.8907 24.7059 62.8907 23.4339C62.8907 22.1619 63.1907 21.0279 63.7907 20.0319C64.4027 19.0239 65.2427 18.2439 66.3107 17.6919C67.3787 17.1279 68.5787 16.8459 69.9107 16.8459C71.1347 16.8459 72.2267 17.0619 73.1867 17.4939C74.1467 17.9259 74.9387 18.5499 75.5627 19.3659L72.8807 21.7599C72.1007 20.7759 71.1827 20.2839 70.1267 20.2839C69.2387 20.2839 68.5247 20.5719 67.9847 21.1479C67.4447 21.7119 67.1747 22.4739 67.1747 23.4339C67.1747 24.3939 67.4447 25.1619 67.9847 25.7379C68.5247 26.3019 69.2387 26.5839 70.1267 26.5839C71.1827 26.5839 72.1007 26.0919 72.8807 25.1079L75.5627 27.5019C74.9387 28.3179 74.1467 28.9419 73.1867 29.3739C72.2267 29.8059 71.1347 30.0219 69.9107 30.0219ZM87.3222 26.5299V29.7339H76.8462V17.1339H87.0882V20.3379H81.0222V21.8139H86.3502V24.8739H81.0222V26.5299H87.3222ZM95.1114 17.1339C96.2754 17.1339 97.2894 17.3259 98.1534 17.7099C99.0174 18.0939 99.6834 18.6459 100.151 19.3659C100.619 20.0859 100.853 20.9259 100.853 21.8859C100.853 22.8459 100.619 23.6859 100.151 24.4059C99.6834 25.1259 99.0174 25.6779 98.1534 26.0619C97.2894 26.4459 96.2754 26.6379 95.1114 26.6379H93.2934V29.7339H89.0454V17.1339H95.1114ZM94.8414 23.3619C95.4174 23.3619 95.8494 23.2359 96.1374 22.9839C96.4254 22.7199 96.5694 22.3539 96.5694 21.8859C96.5694 21.4179 96.4254 21.0579 96.1374 20.8059C95.8494 20.5419 95.4174 20.4099 94.8414 20.4099H93.2934V23.3619H94.8414ZM111.825 23.1279C112.533 23.3799 113.073 23.7579 113.445 24.2619C113.817 24.7539 114.003 25.3599 114.003 26.0799C114.003 27.2079 113.553 28.1019 112.653 28.7619C111.765 29.4099 110.505 29.7339 108.873 29.7339H102.141V17.1339H108.531C110.091 17.1339 111.297 17.4219 112.149 17.9979C113.013 18.5739 113.445 19.3839 113.445 20.4279C113.445 21.0279 113.301 21.5559 113.013 22.0119C112.737 22.4679 112.341 22.8399 111.825 23.1279ZM106.317 21.9759H108.117C108.813 21.9759 109.161 21.6699 109.161 21.0579C109.161 20.4219 108.813 20.1039 108.117 20.1039H106.317V21.9759ZM108.675 26.7639C109.371 26.7639 109.719 26.4279 109.719 25.7559C109.719 25.1079 109.371 24.7839 108.675 24.7839H106.317V26.7639H108.675ZM115.518 17.1339H119.694V23.6859L124.032 17.1339H128.028V29.7339H123.852V23.1999L119.532 29.7339H115.518V17.1339ZM136.602 30.0219C135.27 30.0219 134.07 29.7459 133.002 29.1939C131.934 28.6299 131.094 27.8499 130.482 26.8539C129.882 25.8459 129.582 24.7059 129.582 23.4339C129.582 22.1619 129.882 21.0279 130.482 20.0319C131.094 19.0239 131.934 18.2439 133.002 17.6919C134.07 17.1279 135.27 16.8459 136.602 16.8459C137.826 16.8459 138.918 17.0619 139.878 17.4939C140.838 17.9259 141.63 18.5499 142.254 19.3659L139.572 21.7599C138.792 20.7759 137.874 20.2839 136.818 20.2839C135.93 20.2839 135.216 20.5719 134.676 21.1479C134.136 21.7119 133.866 22.4739 133.866 23.4339C133.866 24.3939 134.136 25.1619 134.676 25.7379C135.216 26.3019 135.93 26.5839 136.818 26.5839C137.874 26.5839 138.792 26.0919 139.572 25.1079L142.254 27.5019C141.63 28.3179 140.838 28.9419 139.878 29.3739C138.918 29.8059 137.826 30.0219 136.602 30.0219ZM143.538 17.1339H147.714V23.6859L152.052 17.1339H156.048V29.7339H151.872V23.1999L147.552 29.7339H143.538V17.1339ZM170.706 17.1339V29.7339H166.458V25.0899H162.534V29.7339H158.286V17.1339H162.534V21.5979H166.458V17.1339H170.706ZM179.282 30.0219C177.95 30.0219 176.75 29.7459 175.682 29.1939C174.614 28.6299 173.774 27.8499 173.162 26.8539C172.562 25.8459 172.262 24.7059 172.262 23.4339C172.262 22.1619 172.562 21.0279 173.162 20.0319C173.774 19.0239 174.614 18.2439 175.682 17.6919C176.75 17.1279 177.95 16.8459 179.282 16.8459C180.506 16.8459 181.598 17.0619 182.558 17.4939C183.518 17.9259 184.31 18.5499 184.934 19.3659L182.252 21.7599C181.472 20.7759 180.554 20.2839 179.498 20.2839C178.61 20.2839 177.896 20.5719 177.356 21.1479C176.816 21.7119 176.546 22.4739 176.546 23.4339C176.546 24.3939 176.816 25.1619 177.356 25.7379C177.896 26.3019 178.61 26.5839 179.498 26.5839C180.554 26.5839 181.472 26.0919 182.252 25.1079L184.934 27.5019C184.31 28.3179 183.518 28.9419 182.558 29.3739C181.598 29.8059 180.506 30.0219 179.282 30.0219ZM196.857 20.4279H193.167V29.7339H188.991V20.4279H185.301V17.1339H196.857V20.4279ZM204.324 17.1339C205.488 17.1339 206.502 17.3259 207.366 17.7099C208.23 18.0939 208.896 18.6459 209.364 19.3659C209.832 20.0859 210.066 20.9259 210.066 21.8859C210.066 22.8459 209.832 23.6859 209.364 24.4059C208.896 25.1259 208.23 25.6779 207.366 26.0619C206.502 26.4459 205.488 26.6379 204.324 26.6379H202.506V29.7339H198.258V17.1339H204.324ZM204.054 23.3619C204.63 23.3619 205.062 23.2359 205.35 22.9839C205.638 22.7199 205.782 22.3539 205.782 21.8859C205.782 21.4179 205.638 21.0579 205.35 20.8059C205.062 20.5419 204.63 20.4099 204.054 20.4099H202.506V23.3619H204.054ZM223.673 17.1339L218.615 26.6199C218.015 27.7479 217.277 28.6059 216.401 29.1939C215.537 29.7819 214.583 30.0759 213.539 30.0759C212.735 30.0759 211.919 29.9079 211.091 29.5719L212.081 26.5119C212.609 26.6559 213.041 26.7279 213.377 26.7279C213.689 26.7279 213.953 26.6739 214.169 26.5659C214.397 26.4579 214.613 26.2779 214.817 26.0259L209.993 17.1339H214.475L216.977 22.4439L219.569 17.1339H223.673ZM235.805 29.7339L235.769 23.9919L233.033 28.5999H231.161L228.425 24.1899V29.7339H224.555V17.1339H228.047L232.151 23.8479L236.147 17.1339H239.639L239.675 29.7339H235.805ZM252.363 26.5299V29.7339H241.887V17.1339H252.129V20.3379H246.063V21.8139H251.391V24.8739H246.063V26.5299H252.363ZM266.506 17.1339V29.7339H262.258V25.0899H258.334V29.7339H254.086V17.1339H258.334V21.5979H262.258V17.1339H266.506ZM279.475 20.4279H275.785V29.7339H271.609V20.4279H267.919V17.1339H279.475V20.4279Z" fill="#0976AD"/>
<path d="M73.58 47L73.57 41.9L71.04 46.15H70.58L68.05 41.93V47H67.09V40H67.91L70.83 44.92L73.71 40H74.53L74.54 47H73.58ZM81.7989 46.13V47H76.7189V40H81.6589V40.87H77.7189V43.02H81.2289V43.87H77.7189V46.13H81.7989ZM90.0393 46.13V48.53H89.1093V47H83.3493L83.3393 48.53H82.4093L82.4193 46.13H82.7593C83.1993 46.1033 83.5093 45.7567 83.6893 45.09C83.8693 44.4167 83.9793 43.47 84.0193 42.25L84.0893 40H89.0093V46.13H90.0393ZM84.8993 42.34C84.866 43.3267 84.786 44.1433 84.6593 44.79C84.5393 45.4367 84.3426 45.8833 84.0693 46.13H88.0193V40.87H84.9493L84.8993 42.34ZM91.4064 40H92.3964V45.4L96.5364 40H97.4564V47H96.4764V41.61L92.3264 47H91.4064V40ZM106.599 46.13V48.59H105.669V47H99.6388V40H100.629V46.13H104.529V40H105.519V46.13H106.599ZM107.93 40H108.92V45.4L113.06 40H113.98V47H113V41.61L108.85 47H107.93V40ZM122.182 40V47H121.182V43.88H117.162V47H116.162V40H117.162V43.01H121.182V40H122.182ZM127.495 47.08C126.795 47.08 126.162 46.9267 125.595 46.62C125.035 46.3067 124.595 45.88 124.275 45.34C123.955 44.7933 123.795 44.18 123.795 43.5C123.795 42.82 123.955 42.21 124.275 41.67C124.595 41.1233 125.039 40.6967 125.605 40.39C126.172 40.0767 126.805 39.92 127.505 39.92C128.052 39.92 128.552 40.0133 129.005 40.2C129.459 40.38 129.845 40.65 130.165 41.01L129.515 41.64C128.989 41.0867 128.332 40.81 127.545 40.81C127.025 40.81 126.555 40.9267 126.135 41.16C125.715 41.3933 125.385 41.7167 125.145 42.13C124.912 42.5367 124.795 42.9933 124.795 43.5C124.795 44.0067 124.912 44.4667 125.145 44.88C125.385 45.2867 125.715 45.6067 126.135 45.84C126.555 46.0733 127.025 46.19 127.545 46.19C128.325 46.19 128.982 45.91 129.515 45.35L130.165 45.98C129.845 46.34 129.455 46.6133 128.995 46.8C128.542 46.9867 128.042 47.08 127.495 47.08ZM133.983 43.92H132.523V47H131.543V40H132.523V43.04H134.003L136.203 40H137.273L134.773 43.39L137.393 47H136.253L133.983 43.92ZM141.549 47.08C140.842 47.08 140.205 46.9267 139.639 46.62C139.072 46.3067 138.625 45.8767 138.299 45.33C137.979 44.7833 137.819 44.1733 137.819 43.5C137.819 42.8267 137.979 42.2167 138.299 41.67C138.625 41.1233 139.072 40.6967 139.639 40.39C140.205 40.0767 140.842 39.92 141.549 39.92C142.249 39.92 142.882 40.0767 143.449 40.39C144.015 40.6967 144.459 41.1233 144.779 41.67C145.099 42.21 145.259 42.82 145.259 43.5C145.259 44.18 145.099 44.7933 144.779 45.34C144.459 45.88 144.015 46.3067 143.449 46.62C142.882 46.9267 142.249 47.08 141.549 47.08ZM141.549 46.19C142.062 46.19 142.522 46.0733 142.929 45.84C143.342 45.6067 143.665 45.2867 143.899 44.88C144.139 44.4667 144.259 44.0067 144.259 43.5C144.259 42.9933 144.139 42.5367 143.899 42.13C143.665 41.7167 143.342 41.3933 142.929 41.16C142.522 40.9267 142.062 40.81 141.549 40.81C141.035 40.81 140.569 40.9267 140.149 41.16C139.735 41.3933 139.409 41.7167 139.169 42.13C138.935 42.5367 138.819 42.9933 138.819 43.5C138.819 44.0067 138.935 44.4667 139.169 44.88C139.409 45.2867 139.735 45.6067 140.149 45.84C140.569 46.0733 141.035 46.19 141.549 46.19ZM151.955 46.13V47H146.875V40H151.815V40.87H147.875V43.02H151.385V43.87H147.875V46.13H151.955ZM159.361 47.08C158.654 47.08 158.018 46.9267 157.451 46.62C156.884 46.3067 156.438 45.8767 156.111 45.33C155.791 44.7833 155.631 44.1733 155.631 43.5C155.631 42.8267 155.791 42.2167 156.111 41.67C156.438 41.1233 156.884 40.6967 157.451 40.39C158.018 40.0767 158.654 39.92 159.361 39.92C160.061 39.92 160.694 40.0767 161.261 40.39C161.828 40.6967 162.271 41.1233 162.591 41.67C162.911 42.21 163.071 42.82 163.071 43.5C163.071 44.18 162.911 44.7933 162.591 45.34C162.271 45.88 161.828 46.3067 161.261 46.62C160.694 46.9267 160.061 47.08 159.361 47.08ZM159.361 46.19C159.874 46.19 160.334 46.0733 160.741 45.84C161.154 45.6067 161.478 45.2867 161.711 44.88C161.951 44.4667 162.071 44.0067 162.071 43.5C162.071 42.9933 161.951 42.5367 161.711 42.13C161.478 41.7167 161.154 41.3933 160.741 41.16C160.334 40.9267 159.874 40.81 159.361 40.81C158.848 40.81 158.381 40.9267 157.961 41.16C157.548 41.3933 157.221 41.7167 156.981 42.13C156.748 42.5367 156.631 42.9933 156.631 43.5C156.631 44.0067 156.748 44.4667 156.981 44.88C157.221 45.2867 157.548 45.6067 157.961 45.84C158.381 46.0733 158.848 46.19 159.361 46.19ZM164.688 40H169.968V40.85H165.678V42.85H167.858C168.691 42.85 169.324 43.0233 169.758 43.37C170.191 43.7167 170.408 44.2167 170.408 44.87C170.408 45.5567 170.171 46.0833 169.698 46.45C169.231 46.8167 168.561 47 167.688 47H164.688V40ZM167.648 46.21C168.221 46.21 168.658 46.1 168.958 45.88C169.258 45.66 169.408 45.3367 169.408 44.91C169.408 44.0633 168.821 43.64 167.648 43.64H165.678V46.21H167.648ZM175.152 47.08C174.445 47.08 173.809 46.9267 173.242 46.62C172.675 46.3067 172.229 45.8767 171.902 45.33C171.582 44.7833 171.422 44.1733 171.422 43.5C171.422 42.8267 171.582 42.2167 171.902 41.67C172.229 41.1233 172.675 40.6967 173.242 40.39C173.809 40.0767 174.445 39.92 175.152 39.92C175.852 39.92 176.485 40.0767 177.052 40.39C177.619 40.6967 178.062 41.1233 178.382 41.67C178.702 42.21 178.862 42.82 178.862 43.5C178.862 44.18 178.702 44.7933 178.382 45.34C178.062 45.88 177.619 46.3067 177.052 46.62C176.485 46.9267 175.852 47.08 175.152 47.08ZM175.152 46.19C175.665 46.19 176.125 46.0733 176.532 45.84C176.945 45.6067 177.269 45.2867 177.502 44.88C177.742 44.4667 177.862 44.0067 177.862 43.5C177.862 42.9933 177.742 42.5367 177.502 42.13C177.269 41.7167 176.945 41.3933 176.532 41.16C176.125 40.9267 175.665 40.81 175.152 40.81C174.639 40.81 174.172 40.9267 173.752 41.16C173.339 41.3933 173.012 41.7167 172.772 42.13C172.539 42.5367 172.422 42.9933 172.422 43.5C172.422 44.0067 172.539 44.4667 172.772 44.88C173.012 45.2867 173.339 45.6067 173.752 45.84C174.172 46.0733 174.639 46.19 175.152 46.19ZM183.209 40C184.115 40 184.829 40.2167 185.349 40.65C185.869 41.0833 186.129 41.68 186.129 42.44C186.129 43.2 185.869 43.7967 185.349 44.23C184.829 44.6633 184.115 44.88 183.209 44.88H181.479V47H180.479V40H183.209ZM183.179 44.01C183.812 44.01 184.295 43.8767 184.629 43.61C184.962 43.3367 185.129 42.9467 185.129 42.44C185.129 41.9333 184.962 41.5467 184.629 41.28C184.295 41.0067 183.812 40.87 183.179 40.87H181.479V44.01H183.179ZM193.093 40L189.983 45.77C189.737 46.23 189.447 46.5733 189.113 46.8C188.78 47.0267 188.417 47.14 188.023 47.14C187.717 47.14 187.403 47.07 187.083 46.93L187.343 46.13C187.59 46.2167 187.81 46.26 188.003 46.26C188.443 46.26 188.807 46.0267 189.093 45.56L189.253 45.31L186.433 40H187.503L189.773 44.44L192.103 40H193.093ZM200.713 46.13V48.53H199.783V47H194.023L194.013 48.53H193.083L193.093 46.13H193.433C193.873 46.1033 194.183 45.7567 194.363 45.09C194.543 44.4167 194.653 43.47 194.693 42.25L194.763 40H199.683V46.13H200.713ZM195.573 42.34C195.54 43.3267 195.46 44.1433 195.333 44.79C195.213 45.4367 195.016 45.8833 194.743 46.13H198.693V40.87H195.623L195.573 42.34ZM205.23 47.08C204.524 47.08 203.887 46.9267 203.32 46.62C202.754 46.3067 202.307 45.8767 201.98 45.33C201.66 44.7833 201.5 44.1733 201.5 43.5C201.5 42.8267 201.66 42.2167 201.98 41.67C202.307 41.1233 202.754 40.6967 203.32 40.39C203.887 40.0767 204.524 39.92 205.23 39.92C205.93 39.92 206.564 40.0767 207.13 40.39C207.697 40.6967 208.14 41.1233 208.46 41.67C208.78 42.21 208.94 42.82 208.94 43.5C208.94 44.18 208.78 44.7933 208.46 45.34C208.14 45.88 207.697 46.3067 207.13 46.62C206.564 46.9267 205.93 47.08 205.23 47.08ZM205.23 46.19C205.744 46.19 206.204 46.0733 206.61 45.84C207.024 45.6067 207.347 45.2867 207.58 44.88C207.82 44.4667 207.94 44.0067 207.94 43.5C207.94 42.9933 207.82 42.5367 207.58 42.13C207.347 41.7167 207.024 41.3933 206.61 41.16C206.204 40.9267 205.744 40.81 205.23 40.81C204.717 40.81 204.25 40.9267 203.83 41.16C203.417 41.3933 203.09 41.7167 202.85 42.13C202.617 42.5367 202.5 42.9933 202.5 43.5C202.5 44.0067 202.617 44.4667 202.85 44.88C203.09 45.2867 203.417 45.6067 203.83 45.84C204.25 46.0733 204.717 46.19 205.23 46.19ZM214.917 43.37C215.39 43.4833 215.747 43.6867 215.987 43.98C216.233 44.2667 216.357 44.6367 216.357 45.09C216.357 45.6967 216.133 46.1667 215.687 46.5C215.247 46.8333 214.603 47 213.757 47H210.557V40H213.567C214.333 40 214.93 40.1567 215.357 40.47C215.79 40.7767 216.007 41.22 216.007 41.8C216.007 42.18 215.91 42.5033 215.717 42.77C215.53 43.0367 215.263 43.2367 214.917 43.37ZM211.547 43.08H213.497C213.983 43.08 214.353 42.9833 214.607 42.79C214.867 42.5967 214.997 42.3133 214.997 41.94C214.997 41.5667 214.867 41.2833 214.607 41.09C214.347 40.89 213.977 40.79 213.497 40.79H211.547V43.08ZM213.737 46.21C214.81 46.21 215.347 45.81 215.347 45.01C215.347 44.61 215.21 44.3167 214.937 44.13C214.67 43.9367 214.27 43.84 213.737 43.84H211.547V46.21H213.737ZM222.578 45.25H218.858L218.088 47H217.058L220.228 40H221.218L224.398 47H223.348L222.578 45.25ZM222.228 44.45L220.718 41.02L219.208 44.45H222.228ZM231.626 40V47H230.626V43.88H226.606V47H225.606V40H226.606V43.01H230.626V40H231.626ZM233.809 40H234.799V45.4L238.939 40H239.859V47H238.879V41.61L234.729 47H233.809V40ZM247.121 46.13V47H242.041V40H246.981V40.87H243.041V43.02H246.551V43.87H243.041V46.13H247.121Z" fill="black"/>
</g>
<defs>
<clipPath id="clip0_1_1369">
<rect width="315" height="59" fill="white"/>
</clipPath>
</defs>
</svg>
